<?xml version="1.0" encoding="UTF-8"?>
<svg width="512" height="512" viewBox="0 0 512 512" fill="none" xmlns="http://www.w3.org/2000/svg">
  <rect width="512" height="512" rx="100" fill="#3D9AFC"/>
  <path d="M256 80C159.5 80 81 158.5 81 255C81 351.5 159.5 430 256 430C352.5 430 431 351.5 431 255C431 158.5 352.5 80 256 80ZM256 390C181.7 390 121 329.3 121 255C121 180.7 181.7 120 256 120C330.3 120 391 180.7 391 255C391 329.3 330.3 390 256 390Z" fill="white"/>
  <path d="M256 160C204.1 160 162 202.1 162 254C162 305.9 204.1 348 256 348C307.9 348 350 305.9 350 254C350 202.1 307.9 160 256 160ZM256 308C226.2 308 202 283.8 202 254C202 224.2 226.2 200 256 200C285.8 200 310 224.2 310 254C310 283.8 285.8 308 256 308Z" fill="white"/>
  <path d="M256 220C237.2 220 222 235.2 222 254C222 272.8 237.2 288 256 288C274.8 288 290 272.8 290 254C290 235.2 274.8 220 256 220Z" fill="white"/>
  <path d="M256 240C248.3 240 242 246.3 242 254C242 261.7 248.3 268 256 268C263.7 268 270 261.7 270 254C270 246.3 263.7 240 256 240Z" fill="white"/>
</svg>
