<?xml version="1.0" encoding="UTF-8"?>
<svg width="512" height="512" viewBox="0 0 512 512" fill="none" xmlns="http://www.w3.org/2000/svg">
  <path d="M256 0C114.615 0 0 114.615 0 256C0 397.385 114.615 512 256 512C397.385 512 512 397.385 512 256C512 114.615 397.385 0 256 0Z" fill="#FF3E00"/>
  <path d="M256 64C153.961 64 71 146.961 71 249C71 351.039 153.961 434 256 434C358.039 434 441 351.039 441 249C441 146.961 358.039 64 256 64ZM256 404C170.561 404 101 334.439 101 249C101 163.561 170.561 94 256 94C341.439 94 411 163.561 411 249C411 334.439 341.439 404 256 404Z" fill="white"/>
  <path d="M256 124C187.175 124 131 180.175 131 249C131 317.825 187.175 374 256 374C324.825 374 381 317.825 381 249C381 180.175 324.825 124 256 124ZM256 344C203.775 344 161 301.225 161 249C161 196.775 203.775 154 256 154C308.225 154 351 196.775 351 249C351 301.225 308.225 344 256 344Z" fill="white"/>
  <path d="M256 184C220.654 184 192 212.654 192 248C192 283.346 220.654 312 256 312C291.346 312 320 283.346 320 248C320 212.654 291.346 184 256 184ZM256 282C237.222 282 222 266.778 222 248C222 229.222 237.222 214 256 214C274.778 214 290 229.222 290 248C290 266.778 274.778 282 256 282Z" fill="white"/>
  <path d="M256 229C245.507 229 237 237.507 237 248C237 258.493 245.507 267 256 267C266.493 267 275 258.493 275 248C275 237.507 266.493 229 256 229Z" fill="white"/>
</svg>
