<?xml version="1.0" encoding="UTF-8"?>
<svg width="512" height="512" viewBox="0 0 512 512" fill="none" xmlns="http://www.w3.org/2000/svg">
  <rect width="512" height="512" rx="100" fill="#FF3E00"/>
  <path d="M256 120C182.3 120 122 180.3 122 254C122 327.7 182.3 388 256 388C329.7 388 390 327.7 390 254C390 180.3 329.7 120 256 120ZM256 358C198.6 358 152 311.4 152 254C152 196.6 198.6 150 256 150C313.4 150 360 196.6 360 254C360 311.4 313.4 358 256 358Z" fill="white"/>
  <path d="M256 180C215.1 180 182 213.1 182 254C182 294.9 215.1 328 256 328C296.9 328 330 294.9 330 254C330 213.1 296.9 180 256 180ZM256 298C231.7 298 212 278.3 212 254C212 229.7 231.7 210 256 210C280.3 210 300 229.7 300 254C300 278.3 280.3 298 256 298Z" fill="white"/>
  <path d="M256 230C243.3 230 233 240.3 233 253C233 265.7 243.3 276 256 276C268.7 276 279 265.7 279 253C279 240.3 268.7 230 256 230Z" fill="white"/>
  <path d="M120 110L180 110L180 398L120 398L120 110Z" fill="white"/>
  <path d="M332 110L392 110L392 398L332 398L332 110Z" fill="white"/>
</svg>
